<mxfile host="app.diagrams.net" agent="Mozilla/5.0 (Windows NT 10.0; Win64; x64) AppleWebKit/537.36 (KHTML, like Gecko) Chrome/141.0.0.0 Safari/537.36 Edg/141.0.0.0" version="28.2.8">
  <diagram name="Page-1" id="-IwS2tVLEvbHGXlkRToN">
    <mxGraphModel dx="2026" dy="1183" grid="1" gridSize="10" guides="1" tooltips="1" connect="1" arrows="1" fold="1" page="1" pageScale="1" pageWidth="827" pageHeight="1169" math="0" shadow="0">
      <root>
        <mxCell id="0" />
        <mxCell id="1" parent="0" />
        <mxCell id="j1ByfCW1pLs-Bahw_pj0-26" value="" style="group;flipV=1;" vertex="1" connectable="0" parent="1">
          <mxGeometry x="95" y="185" width="1021" height="515" as="geometry" />
        </mxCell>
        <mxCell id="j1ByfCW1pLs-Bahw_pj0-27" value="" style="group;rotation=-180;" vertex="1" connectable="0" parent="j1ByfCW1pLs-Bahw_pj0-26">
          <mxGeometry x="-11" width="1025" height="520" as="geometry" />
        </mxCell>
        <mxCell id="j1ByfCW1pLs-Bahw_pj0-22" value="" style="group;rotation=-180;strokeWidth=16;flipV=0;direction=south;" vertex="1" connectable="0" parent="j1ByfCW1pLs-Bahw_pj0-27">
          <mxGeometry width="490" height="520" as="geometry" />
        </mxCell>
        <mxCell id="j1ByfCW1pLs-Bahw_pj0-23" value="" style="verticalLabelPosition=bottom;verticalAlign=top;html=1;shape=mxgraph.basic.arc;startAngle=0.2484085036175459;endAngle=0.5;strokeWidth=16;strokeColor=light-dark(#0020D1,#077FFF);flipV=1;flipH=1;rotation=-180;fillColor=none;" vertex="1" parent="j1ByfCW1pLs-Bahw_pj0-22">
          <mxGeometry x="-25" y="25" width="515" height="494.99999999999994" as="geometry" />
        </mxCell>
        <mxCell id="j1ByfCW1pLs-Bahw_pj0-24" value="" style="group;rotation=-90;strokeWidth=16;fillColor=none;strokeColor=none;flipV=1;direction=south;" vertex="1" connectable="0" parent="j1ByfCW1pLs-Bahw_pj0-27">
          <mxGeometry x="515" width="490" height="520" as="geometry" />
        </mxCell>
        <mxCell id="j1ByfCW1pLs-Bahw_pj0-25" value="" style="verticalLabelPosition=bottom;verticalAlign=top;html=1;shape=mxgraph.basic.arc;startAngle=0.2484085036175459;endAngle=0.5;strokeWidth=16;strokeColor=light-dark(#0020D1,#077FFF);flipV=1;rotation=-180;fillColor=none;" vertex="1" parent="j1ByfCW1pLs-Bahw_pj0-24">
          <mxGeometry x="-25" y="25" width="515" height="494.99999999999994" as="geometry" />
        </mxCell>
        <mxCell id="j1ByfCW1pLs-Bahw_pj0-28" value="" style="endArrow=none;html=1;rounded=0;strokeWidth=16;strokeColor=light-dark(#0020D1,#007FFF);curved=1;fillColor=#0050ef;exitX=0.997;exitY=0.496;exitDx=0;exitDy=0;exitPerimeter=0;" edge="1" parent="j1ByfCW1pLs-Bahw_pj0-24" source="j1ByfCW1pLs-Bahw_pj0-16">
          <mxGeometry width="50" height="50" relative="1" as="geometry">
            <mxPoint x="-29" y="775" as="sourcePoint" />
            <mxPoint x="-25" y="270" as="targetPoint" />
          </mxGeometry>
        </mxCell>
        <mxCell id="j1ByfCW1pLs-Bahw_pj0-14" value="" style="group;rotation=0;strokeWidth=16;" vertex="1" connectable="0" parent="1">
          <mxGeometry x="575" y="705" width="515" height="494.99999999999994" as="geometry" />
        </mxCell>
        <mxCell id="j1ByfCW1pLs-Bahw_pj0-16" value="" style="verticalLabelPosition=bottom;verticalAlign=top;html=1;shape=mxgraph.basic.arc;startAngle=0.2484085036175459;endAngle=0.5;strokeWidth=16;strokeColor=light-dark(#0020D1,#077FFF);flipV=1;flipH=1;rotation=0;fillColor=none;" vertex="1" parent="j1ByfCW1pLs-Bahw_pj0-14">
          <mxGeometry width="515" height="494.99999999999994" as="geometry" />
        </mxCell>
        <mxCell id="j1ByfCW1pLs-Bahw_pj0-8" value="" style="endArrow=none;html=1;rounded=0;strokeWidth=16;strokeColor=light-dark(#0020D1,#007FFF);curved=1;fillColor=#0050ef;" edge="1" parent="1">
          <mxGeometry width="50" height="50" relative="1" as="geometry">
            <mxPoint x="317.5" y="705" as="sourcePoint" />
            <mxPoint x="575" y="705" as="targetPoint" />
          </mxGeometry>
        </mxCell>
        <mxCell id="j1ByfCW1pLs-Bahw_pj0-12" value="" style="group;rotation=90;strokeWidth=16;fillColor=none;strokeColor=none;" vertex="1" connectable="0" parent="1">
          <mxGeometry x="59" y="705" width="515" height="494.99999999999994" as="geometry" />
        </mxCell>
        <mxCell id="j1ByfCW1pLs-Bahw_pj0-13" value="" style="verticalLabelPosition=bottom;verticalAlign=top;html=1;shape=mxgraph.basic.arc;startAngle=0.2484085036175459;endAngle=0.5;strokeWidth=16;strokeColor=light-dark(#0020D1,#077FFF);flipV=1;rotation=0;fillColor=none;" vertex="1" parent="j1ByfCW1pLs-Bahw_pj0-12">
          <mxGeometry width="515" height="494.99999999999994" as="geometry" />
        </mxCell>
        <mxCell id="j1ByfCW1pLs-Bahw_pj0-19" value="" style="endArrow=none;html=1;rounded=0;strokeWidth=16;strokeColor=light-dark(#0020D1,#007FFF);curved=1;fillColor=#0050ef;" edge="1" parent="1">
          <mxGeometry width="50" height="50" relative="1" as="geometry">
            <mxPoint x="575" y="705" as="sourcePoint" />
            <mxPoint x="832.5" y="705" as="targetPoint" />
          </mxGeometry>
        </mxCell>
      </root>
    </mxGraphModel>
  </diagram>
</mxfile>
